<svg width="32" height="32" viewBox="0 0 32 32" fill="currentColor" xmlns="http://www.w3.org/2000/svg">
<path fill-rule="evenodd" clip-rule="evenodd" d="M10.6666 4C11.403 4 12 4.59695 12 5.33333V6.66667H20V5.33333C20 4.59695 20.5969 4 21.3333 4C22.0697 4 22.6666 4.59695 22.6666 5.33333V6.66667C24.8758 6.66667 26.6666 8.45753 26.6666 10.6667V16V24C26.6666 26.2091 24.8758 28 22.6666 28H9.33331C7.12417 28 5.33331 26.2091 5.33331 24V16V10.6667C5.33331 8.45753 7.12417 6.66667 9.33331 6.66667V5.33333C9.33331 4.59695 9.93027 4 10.6666 4ZM20 9.33333V10.6667C20 11.403 20.5969 12 21.3333 12C22.0697 12 22.6666 11.403 22.6666 10.6667V9.33333C23.403 9.33333 24 9.93029 24 10.6667V14.6667H7.99998V10.6667C7.99998 9.93029 8.59693 9.33333 9.33331 9.33333V10.6667C9.33331 11.403 9.93027 12 10.6666 12C11.403 12 12 11.403 12 10.6667V9.33333H20ZM24 17.3333V24C24 24.7364 23.403 25.3333 22.6666 25.3333H9.33331C8.59693 25.3333 7.99998 24.7364 7.99998 24V17.3333H24Z" />
</svg>
