<svg width="32" height="32" viewBox="0 0 32 32" fill="currentColor" xmlns="http://www.w3.org/2000/svg">
<path fill-rule="evenodd" clip-rule="evenodd" d="M23.0572 7.05721C23.5779 6.53651 24.4221 6.53651 24.9428 7.05721C25.4635 7.57791 25.4635 8.42213 24.9428 8.94283L17.8856 16L24.9428 23.0572C25.4635 23.5779 25.4635 24.4221 24.9428 24.9428C24.4221 25.4635 23.5779 25.4635 23.0572 24.9428L16 17.8856L8.94283 24.9428C8.42213 25.4635 7.57791 25.4635 7.05721 24.9428C6.53651 24.4221 6.53651 23.5779 7.05721 23.0572L14.1144 16L7.05721 8.94283C6.53651 8.42213 6.53651 7.57791 7.05721 7.05721C7.57791 6.53651 8.42213 6.53651 8.94283 7.05721L16 14.1144L23.0572 7.05721Z" />
</svg>
