<svg width="32" height="32" viewBox="0 0 32 32" fill="currentColor" xmlns="http://www.w3.org/2000/svg">
<path fill-rule="evenodd" clip-rule="evenodd" d="M12.9333 4C11.8287 4 10.9333 4.89543 10.9333 6V8H9.33331H6.66665C5.93027 8 5.33331 8.59695 5.33331 9.33333C5.33331 10.0697 5.93027 10.6667 6.66665 10.6667V24C6.66665 26.2091 8.45751 28 10.6666 28H21.3333C23.5425 28 25.3333 26.2091 25.3333 24V10.6667C26.0697 10.6667 26.6666 10.0697 26.6666 9.33333C26.6666 8.59695 26.0697 8 25.3333 8H21.0666V6C21.0666 4.89543 20.1712 4 19.0666 4H12.9333ZM22.6666 10.6667H19.0666H12.9333H9.33331V24C9.33331 24.7364 9.93027 25.3333 10.6666 25.3333H21.3333C22.0697 25.3333 22.6666 24.7364 22.6666 24V10.6667ZM18.4 8H13.6V6.66667H18.4V8ZM13.3333 14.6667C14.0697 14.6667 14.6666 15.2636 14.6666 16V20C14.6666 20.7364 14.0697 21.3333 13.3333 21.3333C12.5969 21.3333 12 20.7364 12 20V16C12 15.2636 12.5969 14.6667 13.3333 14.6667ZM20 16C20 15.2636 19.403 14.6667 18.6666 14.6667C17.9303 14.6667 17.3333 15.2636 17.3333 16V20C17.3333 20.7364 17.9303 21.3333 18.6666 21.3333C19.403 21.3333 20 20.7364 20 20V16Z" />
</svg>
