<svg width="32" height="32" viewBox="0 0 32 32" fill="currentColor" xmlns="http://www.w3.org/2000/svg">
<path fill-rule="evenodd" clip-rule="evenodd" d="M17.3333 15.8925V3.99999C17.3333 3.26361 16.7364 2.66666 16 2.66666C15.2636 2.66666 14.6667 3.26361 14.6667 3.99999V15.8925L10.1663 12.2922C9.59125 11.8322 8.75219 11.9254 8.29218 12.5004C7.83216 13.0754 7.92539 13.9145 8.50041 14.3745L14.7506 19.3746C14.8284 19.4369 14.9097 19.4925 14.9938 19.5415C15.2382 19.8224 15.5984 20 16 20C16.4016 20 16.7618 19.8224 17.0062 19.5415C17.0903 19.4925 17.1716 19.4369 17.2494 19.3746L23.4996 14.3745C24.0746 13.9145 24.1678 13.0754 23.7078 12.5004C23.2478 11.9254 22.4088 11.8322 21.8337 12.2922L17.3333 15.8925ZM5.33333 18.6667C6.06971 18.6667 6.66667 19.2636 6.66667 20V25.3333H25.3333V20C25.3333 19.2636 25.9303 18.6667 26.6667 18.6667C27.403 18.6667 28 19.2636 28 20V26C28 27.1046 27.1046 28 26 28H6C4.89543 28 4 27.1046 4 26V20C4 19.2636 4.59695 18.6667 5.33333 18.6667Z" />
</svg>
