<svg width="32" height="32" viewBox="0 0 32 32" fill="currentColor" xmlns="http://www.w3.org/2000/svg">
<path fill-rule="evenodd" clip-rule="evenodd" d="M26.7055 15.7011C26.7057 15.701 26.7046 15.7045 26.7018 15.7115C26.704 15.7046 26.7054 15.7011 26.7055 15.7011ZM25.911 15.1828C26.2048 15.5152 26.4105 15.7903 26.544 16C26.4105 16.2098 26.2048 16.4848 25.911 16.8173C25.1865 17.6369 24.115 18.5932 22.8546 19.5107C21.5997 20.4242 20.2353 21.2424 18.9587 21.8215C17.6328 22.423 16.619 22.6667 16 22.6667C15.3811 22.6667 14.3673 22.423 13.0414 21.8215C11.7647 21.2424 10.4004 20.4242 9.14545 19.5107C7.88499 18.5932 6.8135 17.6369 6.08908 16.8173C5.79522 16.4848 5.58958 16.2098 5.45608 16C5.58958 15.7903 5.79522 15.5152 6.08908 15.1828C6.8135 14.3632 7.88499 13.4068 9.14545 12.4893C10.4004 11.5758 11.7647 10.7576 13.0414 10.1785C14.3673 9.57705 15.3811 9.33335 16 9.33335C16.619 9.33335 17.6328 9.57705 18.9587 10.1785C20.2353 10.7576 21.5997 11.5758 22.8546 12.4893C24.115 13.4068 25.1865 14.3632 25.911 15.1828ZM5.29453 15.7011C5.29468 15.7011 5.29605 15.7046 5.2982 15.7115C5.29546 15.7045 5.29438 15.701 5.29453 15.7011ZM5.29453 16.299C5.29438 16.299 5.29546 16.2956 5.2982 16.2885C5.29605 16.2954 5.29468 16.2989 5.29453 16.299ZM26.7049 16.2967C26.7043 16.295 26.7033 16.2923 26.7018 16.2885C26.7031 16.2925 26.7041 16.2954 26.7047 16.2971C26.7052 16.2983 26.7054 16.299 26.7055 16.299C26.7056 16.299 26.7054 16.2982 26.7049 16.2967ZM29.3334 16C29.3334 18.6667 20.6861 25.3334 16 25.3334C11.314 25.3334 2.66669 18.6667 2.66669 16C2.66669 13.3334 11.314 6.66669 16 6.66669C20.6861 6.66669 29.3334 13.3334 29.3334 16ZM18.6667 16C18.6667 17.4728 17.4728 18.6667 16 18.6667C14.5273 18.6667 13.3334 17.4728 13.3334 16C13.3334 14.5273 14.5273 13.3334 16 13.3334C17.4728 13.3334 18.6667 14.5273 18.6667 16ZM21.3334 16C21.3334 18.9455 18.9455 21.3334 16 21.3334C13.0545 21.3334 10.6667 18.9455 10.6667 16C10.6667 13.0545 13.0545 10.6667 16 10.6667C18.9455 10.6667 21.3334 13.0545 21.3334 16Z" />
</svg>
