<svg width="32" height="32" viewBox="0 0 32 32" fill="currentColor" xmlns="http://www.w3.org/2000/svg">
<path fill-rule="evenodd" clip-rule="evenodd" d="M17.1775 3.5469C16.6759 2.60387 15.3246 2.60387 14.823 3.5469L11.3979 9.98731C11.1952 10.3686 10.8203 10.628 10.392 10.6835L3.86593 11.529C2.7038 11.6796 2.28718 13.1485 3.19721 13.8868L8.22028 17.9619C8.60953 18.2777 8.78879 18.7851 8.68427 19.2754L7.20637 26.2073C6.96783 27.3261 8.1565 28.2061 9.15697 27.6514L15.3537 24.2153C15.7559 23.9923 16.2446 23.9923 16.6468 24.2153L22.8435 27.6514C23.844 28.2061 25.0327 27.3261 24.7941 26.2073L23.3162 19.2754C23.2117 18.7851 23.391 18.2777 23.7802 17.9619L28.8033 13.8868C29.7133 13.1485 29.2967 11.6796 28.1346 11.529L21.6085 10.6835C21.1802 10.628 20.8054 10.3686 20.6026 9.9873L17.1775 3.5469ZM19.0005 13.0123L16.0002 6.66667L13 13.0123L6.66682 13.6L11.8668 17.3755L10.1667 24L16.0003 20.5134L21.8335 24L20.1337 17.3755L25.3335 13.6L19.0005 13.0123Z" />
</svg>
