<svg width="32" height="32" viewBox="0 0 32 32" fill="currentColor" xmlns="http://www.w3.org/2000/svg">
<path fill-rule="evenodd" clip-rule="evenodd" d="M24.8432 10.0312C23.5753 7.765 20.5449 7.35051 18.7379 9.1961L16.9354 11.0372C16.6873 11.2906 16.3508 11.433 15.9999 11.433C15.649 11.433 15.3125 11.2906 15.0644 11.0372L13.2619 9.19616C11.455 7.35059 8.42453 7.76513 7.15675 10.0313C6.30899 11.5467 6.53301 13.4504 7.70819 14.7174L15.9999 23.6572L24.2917 14.7176C25.467 13.4505 25.691 11.5466 24.8432 10.0312ZM16.8669 7.28502C19.9075 4.17932 25.0071 4.87681 27.1406 8.69021C28.5673 11.2404 28.1904 14.4441 26.2126 16.5763L17.4406 26.0337C16.6578 26.8777 15.3419 26.8777 14.5592 26.0337L5.78727 16.5762C3.80968 14.444 3.43271 11.2405 4.85931 8.69043C6.99271 4.87695 12.0923 4.17937 15.1329 7.28508L15.9999 8.17058L16.8669 7.28502Z" />
</svg>
