<svg width="32" height="32" viewBox="0 0 32 32" fill="currentColor" xmlns="http://www.w3.org/2000/svg">
<path fill-rule="evenodd" clip-rule="evenodd" d="M17.0633 4.35195C16.4957 3.88561 15.6848 3.88238 15.1137 4.34419L4.58945 12.8532C3.43779 13.7843 4.08679 15.6669 5.55948 15.6669L5.92913 15.6669V26.421C5.92913 27.293 6.62598 28 7.48559 28H12.4315C12.4441 28 12.4566 27.9998 12.4691 27.9994H19.8775C19.8926 27.9994 19.9076 27.9992 19.9225 27.9986C19.9422 27.9995 19.9621 28 19.9821 28H24.4885C25.3481 28 26.045 27.2931 26.045 26.421V15.6671H26.4405C27.9071 15.6671 28.5598 13.7975 27.42 12.8611L17.0633 4.35195ZM21.1746 25.3684H23.4509V14.6144C23.4509 14.1397 23.6573 13.714 23.9841 13.4246L16.0785 6.92925L8.01594 13.448C8.32767 13.7367 8.52324 14.1524 8.52324 14.6143V25.3684H10.7981V17.1441C10.7981 16.4174 11.3789 15.8282 12.0952 15.8282H19.8775C20.5939 15.8282 21.1746 16.4174 21.1746 17.1441V25.3684ZM13.3923 25.3678V18.4599H18.5805V25.3678H13.3923Z" />
</svg>
