<svg width="32" height="32" viewBox="0 0 32 32" fill="currentColor" xmlns="http://www.w3.org/2000/svg">
<path fill-rule="evenodd" clip-rule="evenodd" d="M6.66667 19.7847V6.66667H25.3333V15.9475L23.3792 14.1288C22.5911 13.3953 21.3637 13.4173 20.6024 14.1786L14.5779 20.2031L11.3747 17.427C10.5427 16.706 9.28456 16.7929 8.55964 17.6213L6.66667 19.7847ZM28 6V19.0064V19.0138V26C28 27.1046 27.1046 28 26 28H20.0088H19.9901H6C4.89543 28 4 27.1046 4 26V23.3398V23.3258V6C4 4.89543 4.89543 4 6 4H26C27.1046 4 28 4.89543 28 6ZM22.0332 16.519L25.3333 19.5903V25.3333H20.4974L16.5982 21.9541L22.0332 16.519ZM16.4257 25.3333H6.66667V23.8343L10.1296 19.8767L16.4257 25.3333ZM16 12C16 12.7364 15.403 13.3333 14.6667 13.3333C13.9303 13.3333 13.3333 12.7364 13.3333 12C13.3333 11.2636 13.9303 10.6667 14.6667 10.6667C15.403 10.6667 16 11.2636 16 12ZM18.6667 12C18.6667 14.2091 16.8758 16 14.6667 16C12.4575 16 10.6667 14.2091 10.6667 12C10.6667 9.79086 12.4575 8 14.6667 8C16.8758 8 18.6667 9.79086 18.6667 12Z" />
</svg>
