<svg width="32" height="32" viewBox="0 0 32 32" fill="currentColor" xmlns="http://www.w3.org/2000/svg">
<path fill-rule="evenodd" clip-rule="evenodd" d="M16 25.3333C21.1547 25.3333 25.3333 21.1547 25.3333 16C25.3333 10.8453 21.1547 6.66667 16 6.66667C10.8453 6.66667 6.66667 10.8453 6.66667 16C6.66667 21.1547 10.8453 25.3333 16 25.3333ZM16 28C22.6274 28 28 22.6274 28 16C28 9.37258 22.6274 4 16 4C9.37258 4 4 9.37258 4 16C4 22.6274 9.37258 28 16 28ZM16 9.33333C16.7364 9.33333 17.3333 9.93029 17.3333 10.6667V17.3333C17.3333 18.0697 16.7364 18.6667 16 18.6667C15.2636 18.6667 14.6667 18.0697 14.6667 17.3333V10.6667C14.6667 9.93029 15.2636 9.33333 16 9.33333ZM16 22.6667C16.7364 22.6667 17.3333 22.0697 17.3333 21.3333C17.3333 20.597 16.7364 20 16 20C15.2636 20 14.6667 20.597 14.6667 21.3333C14.6667 22.0697 15.2636 22.6667 16 22.6667Z" />
</svg>
