<svg width="32" height="32" viewBox="0 0 32 32" fill="currentColor" xmlns="http://www.w3.org/2000/svg">
<path fill-rule="evenodd" clip-rule="evenodd" d="M5.62927 16.9428L9.4005 13.1716L9.43464 13.2057L9.49279 13.2639L9.55078 13.3219L9.6086 13.3797L9.66625 13.4373L9.72373 13.4948L9.78103 13.5521L9.83818 13.6093L9.89515 13.6662L9.95195 13.723L10.0086 13.7797L10.0651 13.8361L10.1214 13.8924L10.1775 13.9486L10.2335 14.0045L10.2892 14.0603L10.3449 14.116L10.4003 14.1714L10.4556 14.2267L10.5108 14.2818L10.5657 14.3368L10.6205 14.3916L10.6752 14.4462L10.7296 14.5007L10.7839 14.555L10.8381 14.6091L10.892 14.6631L10.9459 14.7169L10.9995 14.7706L11.053 14.8241L11.1063 14.8774L11.1594 14.9305L11.2124 14.9835L11.2653 15.0363L11.2861 15.0572L7.51489 18.8284C5.95279 20.3905 5.95279 22.9232 7.51488 24.4853C9.07698 26.0474 11.6096 26.0474 13.1717 24.4853L16.943 20.7141L16.9522 20.7233L16.9849 20.756L17.0175 20.7886L17.0499 20.821L17.0822 20.8533L17.1144 20.8855L17.1464 20.9175L17.1783 20.9494L17.2101 20.9812L17.2417 21.0128L17.2732 21.0443L17.3046 21.0757L17.3358 21.1069L17.3669 21.138L17.3979 21.169L17.4287 21.1998L17.4594 21.2305L17.49 21.2611L17.5204 21.2915L17.5507 21.3218L17.5809 21.352L17.611 21.382L17.6409 21.412L17.6707 21.4417L17.7003 21.4714L17.7298 21.5009L17.7592 21.5303L17.7885 21.5596L17.8176 21.5887L17.8467 21.6177L17.8755 21.6466L17.9043 21.6754L17.9329 21.704L17.9614 21.7325L17.9898 21.7608L18.018 21.7891L18.0461 21.8172L18.0741 21.8452L18.102 21.873L18.1297 21.9008L18.1573 21.9284L18.1848 21.9558L18.2121 21.9832L18.2393 22.0104L18.2664 22.0375L18.2934 22.0645L18.3203 22.0913L18.347 22.1181L18.3736 22.1446L18.4 22.1711L18.4264 22.1975L18.4526 22.2237L18.4787 22.2498L18.5047 22.2758L18.5305 22.3016L18.5563 22.3273L18.5819 22.3529L18.6074 22.3784L18.6327 22.4038L18.6579 22.429L18.6831 22.4541L18.708 22.4791L18.7329 22.504L18.7577 22.5287L18.7823 22.5534L18.8068 22.5779L18.8286 22.5997L15.0574 26.3709C12.4539 28.9744 8.23276 28.9744 5.62927 26.3709C3.02577 23.7674 3.02577 19.5463 5.62927 16.9428ZM24.4854 7.51472C26.0475 9.07682 26.0475 11.6095 24.4854 13.1716L20.7142 16.9428L20.7235 16.9521L20.7562 16.9848L20.7888 17.0174L20.8212 17.0498L20.8535 17.0821L20.8856 17.1142L20.9177 17.1463L20.9496 17.1782L20.9813 17.2099L21.013 17.2416L21.0445 17.2731L21.0758 17.3044L21.1071 17.3357L21.1382 17.3668L21.1691 17.3977L21.2 17.4286L21.2307 17.4593L21.2612 17.4898L21.2917 17.5203L21.322 17.5506L21.3521 17.5808L21.3822 17.6108L21.4121 17.6407L21.4419 17.6705L21.4716 17.7002L21.5011 17.7297L21.5305 17.7591L21.5597 17.7883L21.5889 17.8175L21.6179 17.8465L21.6468 17.8754L21.6755 17.9041L21.7041 17.9327L21.7326 17.9612L21.761 17.9896L21.7892 18.0178L21.8174 18.046L21.8453 18.0739L21.8732 18.1018L21.9009 18.1295L21.9285 18.1571L21.956 18.1846L21.9834 18.212L22.0106 18.2392L22.0377 18.2663L22.0646 18.2932L22.0915 18.3201L22.1182 18.3468L22.1448 18.3734L22.1713 18.3999L22.1976 18.4262L22.2239 18.4525L22.25 18.4786L22.2759 18.5045L22.3018 18.5304L22.3275 18.5561L22.3531 18.5817L22.3786 18.6072L22.4039 18.6325L22.4292 18.6578L22.4543 18.6829L22.4793 18.7079L22.5042 18.7328L22.5289 18.7575L22.5535 18.7821L22.578 18.8066L22.5998 18.8284L26.3711 15.0572C28.9746 12.4537 28.9746 8.2326 26.3711 5.62911C23.7676 3.02561 19.5465 3.02561 16.943 5.62911L13.1717 9.40034L13.2059 9.43448L13.264 9.49263L13.322 9.55062L13.3798 9.60844L13.4375 9.66609L13.495 9.72356L13.5523 9.78087L13.6094 9.83801L13.6664 9.89499L13.7232 9.95179L13.7798 10.0084L13.8363 10.0649L13.8926 10.1212L13.9487 10.1773L14.0047 10.2333L14.0605 10.2891L14.1161 10.3447L14.1716 10.4002L14.2269 10.4555L14.282 10.5106L14.337 10.5656L14.3918 10.6204L14.4464 10.675L14.5009 10.7295L14.5552 10.7838L14.6093 10.8379L14.6633 10.8919L14.7171 10.9457L14.7707 10.9993L14.8242 11.0528L14.8775 11.1061L14.9307 11.1593L14.9837 11.2123L15.0365 11.2651L15.0574 11.286L18.8286 7.51472C20.3907 5.95263 22.9234 5.95263 24.4854 7.51472ZM11.2861 18.8284C10.7654 19.3491 10.7654 20.1934 11.2861 20.7141C11.8068 21.2347 12.651 21.2347 13.1717 20.7141L20.7142 13.1716C21.2349 12.6509 21.2349 11.8067 20.7142 11.286C20.1935 10.7653 19.3493 10.7653 18.8286 11.286L11.2861 18.8284Z" />
</svg>
