<svg width="32" height="32" viewBox="0 0 32 32" fill="currentColor" xmlns="http://www.w3.org/2000/svg">
<path fill-rule="evenodd" clip-rule="evenodd" d="M16 21.3333C17.4727 21.3333 18.6666 22.5272 18.6666 24C18.6666 25.4727 17.4727 26.6667 16 26.6667C14.5272 26.6667 13.3333 25.4727 13.3333 24C13.3333 22.5272 14.5272 21.3333 16 21.3333ZM16 13.3333C17.4727 13.3333 18.6666 14.5272 18.6666 16C18.6666 17.4727 17.4727 18.6667 16 18.6667C14.5272 18.6667 13.3333 17.4727 13.3333 16C13.3333 14.5272 14.5272 13.3333 16 13.3333ZM18.6666 7.99999C18.6666 6.52723 17.4727 5.33332 16 5.33332C14.5272 5.33332 13.3333 6.52723 13.3333 7.99999C13.3333 9.47275 14.5272 10.6667 16 10.6667C17.4727 10.6667 18.6666 9.47275 18.6666 7.99999Z" />
</svg>
