<svg width="32" height="32" viewBox="0 0 32 32" fill="currentColor" xmlns="http://www.w3.org/2000/svg">
<path fill-rule="evenodd" clip-rule="evenodd" d="M6.94283 6.3905L6.00002 5.44769L4.1144 7.33331L5.05721 8.27612L7.31028 10.5292C4.69036 12.4838 2.66669 14.7099 2.66669 16C2.66669 18.6666 11.314 25.3333 16 25.3333C17.3456 25.3333 19.0177 24.7837 20.718 23.9369L22.3905 25.6094L23.3333 26.5523L25.219 24.6666L24.2762 23.7238L6.94283 6.3905ZM18.712 21.9309L17.8022 21.0211C17.2393 21.2232 16.6325 21.3333 16 21.3333C13.0545 21.3333 10.6667 18.9455 10.6667 16C10.6667 15.3675 10.7768 14.7607 10.9789 14.1978L9.21786 12.4368C9.19368 12.4542 9.16954 12.4717 9.14545 12.4893C7.88499 13.4068 6.8135 14.3631 6.08908 15.1827C5.79522 15.5152 5.58958 15.7902 5.45608 16C5.58958 16.2097 5.79522 16.4848 6.08908 16.8172C6.8135 17.6368 7.88499 18.5932 9.14545 19.5107C10.4004 20.4242 11.7647 21.2424 13.0414 21.8215C14.3673 22.4229 15.3811 22.6666 16 22.6666C16.58 22.6666 17.5067 22.4527 18.712 21.9309ZM15.3738 18.5927C14.404 18.3593 13.6407 17.596 13.4073 16.6262L15.3738 18.5927ZM14.1978 10.9788L16.6262 13.4073C17.596 13.6406 18.3594 14.404 18.5927 15.3738L21.0212 17.8022C21.2233 17.2392 21.3334 16.6325 21.3334 16C21.3334 13.0545 18.9455 10.6666 16 10.6666C15.3675 10.6666 14.7608 10.7767 14.1978 10.9788ZM22.8546 19.5107L22.7822 19.5632L24.6898 21.4708C27.3097 19.5161 29.3334 17.29 29.3334 16C29.3334 13.3333 20.6861 6.66664 16 6.66664C14.6545 6.66664 12.9823 7.2163 11.2821 8.06309L13.2881 10.0691C14.4934 9.54729 15.42 9.33331 16 9.33331C16.619 9.33331 17.6328 9.57701 18.9587 10.1785C20.2353 10.7576 21.5997 11.5758 22.8546 12.4893C24.115 13.4068 25.1865 14.3631 25.911 15.1827C26.2048 15.5152 26.4105 15.7902 26.544 16C26.4105 16.2097 26.2048 16.4848 25.911 16.8172C25.1865 17.6368 24.115 18.5932 22.8546 19.5107ZM26.704 15.7057C26.7052 15.7025 26.7056 15.701 26.7055 15.701C26.7054 15.7011 26.704 15.7046 26.7018 15.7115C26.7027 15.7091 26.7035 15.7072 26.704 15.7057ZM5.29453 15.701C5.29468 15.7011 5.29605 15.7046 5.2982 15.7115C5.29546 15.7044 5.29438 15.701 5.29453 15.701ZM5.29453 16.2989C5.29438 16.299 5.29546 16.2955 5.2982 16.2885C5.29605 16.2954 5.29468 16.2989 5.29453 16.2989ZM26.7049 16.2967L26.7018 16.2885L26.7047 16.297L26.7055 16.2989C26.7055 16.2989 26.7055 16.2988 26.7055 16.2986L26.7049 16.2967Z" />
</svg>
