<svg width="32" height="32" viewBox="0 0 32 32" fill="currentColor" xmlns="http://www.w3.org/2000/svg">
<path fill-rule="evenodd" clip-rule="evenodd" d="M23.1112 6.69096C21.7344 5.43925 19.6283 5.45038 18.2647 6.71656L8.60141 15.6896C6.08871 18.0229 6.07923 21.9966 8.58077 24.3418C10.8698 26.4878 14.4359 26.4738 16.7079 24.3099L25.7471 15.7012C26.2804 15.1933 27.1243 15.2139 27.6322 15.7471C28.14 16.2804 28.1194 17.1243 27.5862 17.6322L18.547 26.2409C15.2509 29.3801 10.0776 29.4004 6.75692 26.2873C3.12794 22.8851 3.1417 17.1203 6.78688 13.7355L16.4502 4.76244C18.829 2.55356 22.503 2.53416 24.905 4.71779C27.6281 7.19328 27.6327 11.4742 24.915 13.9556L15.2387 22.7904C13.7763 24.1257 11.5222 24.0745 10.1219 22.6742C8.64224 21.1945 8.68111 18.7838 10.2077 17.3526L19.0881 9.02729C19.6253 8.52365 20.4691 8.55087 20.9727 9.08809C21.4764 9.6253 21.4491 10.4691 20.9119 10.9727L12.0315 19.2981C11.604 19.6989 11.5931 20.3741 12.0075 20.7886C12.3997 21.1808 13.0311 21.1951 13.4407 20.8211L23.117 11.9863C24.6748 10.5639 24.6721 8.10997 23.1112 6.69096Z" />
</svg>
