<svg width="32" height="32" viewBox="0 0 32 32" fill="currentColor" xmlns="http://www.w3.org/2000/svg">
<path fill-rule="evenodd" clip-rule="evenodd" d="M18.5469 8.71384L21.1588 5.96102L25.9341 10.7368L23.3422 13.4414L18.5469 8.71384ZM16.7111 10.6487L7.50182 20.3546C7.35317 20.5113 7.25923 20.7119 7.23406 20.9264L6.64952 25.907L11.477 25.4681C11.7172 25.4463 11.9415 25.3383 12.1084 25.1641L21.497 15.3669L16.7111 10.6487ZM22.5606 3.5915C21.765 2.79584 20.4699 2.81282 19.6954 3.62904L5.18572 18.9214C4.88842 19.2347 4.70055 19.6359 4.6502 20.0649L3.90526 26.4121C3.75718 27.6738 4.80757 28.7521 6.07269 28.6371L12.3394 28.0674C12.8199 28.0237 13.2685 27.8077 13.6023 27.4594L28.3109 12.1106C29.0637 11.3251 29.0505 10.082 28.2812 9.3127L22.5606 3.5915Z" />
</svg>
