<svg width="32" height="32" viewBox="0 0 32 32" fill="currentColor" xmlns="http://www.w3.org/2000/svg">
<path fill-rule="evenodd" clip-rule="evenodd" d="M24 13.0732C24 17.0759 21.5127 20.6835 16 25.751C10.4873 20.6835 7.99998 17.0759 7.99998 13.0732C7.99998 8.86029 11.5192 5.33335 16 5.33335C20.4807 5.33335 24 8.86029 24 13.0732ZM26.6666 13.0732C26.6666 18.6288 22.9291 23.1676 16.6582 28.7514C16.2831 29.0855 15.7169 29.0855 15.3418 28.7514C9.0709 23.1676 5.33331 18.6288 5.33331 13.0732C5.33331 7.32584 10.1089 2.66669 16 2.66669C21.891 2.66669 26.6666 7.32584 26.6666 13.0732ZM18.6666 13.3334C18.6666 14.8061 17.4727 16 16 16C14.5272 16 13.3333 14.8061 13.3333 13.3334C13.3333 11.8606 14.5272 10.6667 16 10.6667C17.4727 10.6667 18.6666 11.8606 18.6666 13.3334ZM21.3333 13.3334C21.3333 16.2789 18.9455 18.6667 16 18.6667C13.0545 18.6667 10.6666 16.2789 10.6666 13.3334C10.6666 10.3878 13.0545 8.00002 16 8.00002C18.9455 8.00002 21.3333 10.3878 21.3333 13.3334Z" />
</svg>
