<svg width="32" height="32" viewBox="0 0 32 32" fill="currentColor" xmlns="http://www.w3.org/2000/svg">
<path fill-rule="evenodd" clip-rule="evenodd" d="M14.6667 6.01962C14.6667 5.28324 15.2636 4.68629 16 4.68629C16.7364 4.68629 17.3334 5.28324 17.3334 6.01962L17.3334 14.6667L25.9804 14.6667C26.7168 14.6667 27.3137 15.2636 27.3137 16C27.3137 16.7364 26.7168 17.3333 25.9804 17.3333L17.3334 17.3333L17.3334 25.9804C17.3334 26.7168 16.7364 27.3137 16 27.3137C15.2636 27.3137 14.6667 26.7168 14.6667 25.9804L14.6667 17.3333L6.01965 17.3333C5.28327 17.3333 4.68632 16.7364 4.68632 16C4.68632 15.2636 5.28327 14.6667 6.01965 14.6667L14.6667 14.6667L14.6667 6.01962Z" />
</svg>
