<svg width="32" height="32" viewBox="0 0 32 32" fill="currentColor" xmlns="http://www.w3.org/2000/svg">
<path fill-rule="evenodd" clip-rule="evenodd" d="M12 8C12 7.26362 12.5969 6.66667 13.3333 6.66667H18.6667C19.403 6.66667 20 7.26362 20 8H12ZM9.33332 8C9.33332 5.79086 11.1242 4 13.3333 4H18.6667C20.8758 4 22.6667 5.79086 22.6667 8H25.3333C27.5425 8 29.3333 9.79086 29.3333 12V14.6667V24C29.3333 26.2091 27.5425 28 25.3333 28H6.66666C4.45752 28 2.66666 26.2091 2.66666 24V14.6667V12C2.66666 9.79086 4.45752 8 6.66666 8H9.33332ZM21.3333 10.6667H25.3333C26.0697 10.6667 26.6667 11.2636 26.6667 12V13.3333H5.33332V12C5.33332 11.2636 5.93028 10.6667 6.66666 10.6667H10.6667H21.3333ZM26.6667 24V16H5.33332V24C5.33332 24.7364 5.93028 25.3333 6.66666 25.3333H25.3333C26.0697 25.3333 26.6667 24.7364 26.6667 24Z" />
</svg>
