<svg width="32" height="32" viewBox="0 0 32 32" fill="currentColor" xmlns="http://www.w3.org/2000/svg">
<path fill-rule="evenodd" clip-rule="evenodd" d="M18.6667 9.33333C18.6667 10.8061 17.4728 12 16 12C14.5273 12 13.3334 10.8061 13.3334 9.33333C13.3334 7.86057 14.5273 6.66667 16 6.66667C17.4728 6.66667 18.6667 7.86057 18.6667 9.33333ZM21.3334 9.33333C21.3334 12.2789 18.9455 14.6667 16 14.6667C13.0545 14.6667 10.6667 12.2789 10.6667 9.33333C10.6667 6.38781 13.0545 4 16 4C18.9455 4 21.3334 6.38781 21.3334 9.33333ZM9.33335 25.3333C9.33335 21.6514 12.3181 18.6667 16 18.6667C19.6819 18.6667 22.6667 21.6514 22.6667 25.3333C22.6667 26.0697 23.2636 26.6667 24 26.6667C24.7364 26.6667 25.3334 26.0697 25.3334 25.3333C25.3334 20.1787 21.1547 16 16 16C10.8454 16 6.66669 20.1787 6.66669 25.3333C6.66669 26.0697 7.26364 26.6667 8.00002 26.6667C8.7364 26.6667 9.33335 26.0697 9.33335 25.3333Z" />
</svg>
