<svg width="32" height="32" viewBox="0 0 32 32" fill="currentColor" xmlns="http://www.w3.org/2000/svg">
<path fill-rule="evenodd" clip-rule="evenodd" d="M20 13.3333C20 17.0152 17.0152 20 13.3333 20C9.65144 20 6.66667 17.0152 6.66667 13.3333C6.66667 9.65144 9.65144 6.66667 13.3333 6.66667C17.0152 6.66667 20 9.65144 20 13.3333ZM18.1253 21.3442C16.7246 22.1839 15.0853 22.6667 13.3333 22.6667C8.17868 22.6667 4 18.488 4 13.3333C4 8.17868 8.17868 4 13.3333 4C18.488 4 22.6667 8.17868 22.6667 13.3333C22.6667 15.7702 21.7328 17.9889 20.2034 19.6511L25.6095 25.0572C26.1302 25.5779 26.1302 26.4221 25.6095 26.9428C25.0888 27.4635 24.2445 27.4635 23.7239 26.9428L18.1253 21.3442Z" />
</svg>
