<svg width="32" height="32" viewBox="0 0 32 32" fill="currentColor" xmlns="http://www.w3.org/2000/svg">
<path fill-rule="evenodd" clip-rule="evenodd" d="M14.6667 6.77416V18.6667C14.6667 19.403 15.2636 20 16 20C16.7364 20 17.3333 19.403 17.3333 18.6667V6.77416L21.8337 10.3745C22.4088 10.8345 23.2478 10.7413 23.7078 10.1662C24.1678 9.59123 24.0746 8.75218 23.4996 8.29217L17.2494 3.292C17.1716 3.22975 17.0903 3.17413 17.0062 3.12514C16.7618 2.84423 16.4016 2.66666 16 2.66666C15.5984 2.66666 15.2382 2.84423 14.9938 3.12514C14.9097 3.17413 14.8284 3.22975 14.7506 3.292L8.50041 8.29217C7.92539 8.75218 7.83216 9.59123 8.29218 10.1662C8.75219 10.7413 9.59124 10.8345 10.1663 10.3745L14.6667 6.77416ZM5.33333 18.6667C6.06971 18.6667 6.66667 19.2636 6.66667 20V25.3333H25.3333V20C25.3333 19.2636 25.9303 18.6667 26.6667 18.6667C27.403 18.6667 28 19.2636 28 20V26C28 27.1046 27.1046 28 26 28H6C4.89543 28 4 27.1046 4 26V20C4 19.2636 4.59695 18.6667 5.33333 18.6667Z" />
</svg>
