<svg width="32" height="32" viewBox="0 0 32 32" fill="currentColor" xmlns="http://www.w3.org/2000/svg">
<path fill-rule="evenodd" clip-rule="evenodd" d="M28 6.66665C28 5.93027 27.403 5.33331 26.6667 5.33331H5.33333C4.59695 5.33331 4 5.93027 4 6.66665C4 7.40303 4.59695 7.99998 5.33333 7.99998H26.6667C27.403 7.99998 28 7.40303 28 6.66665ZM28 11.3333C28 10.5969 27.403 9.99998 26.6667 9.99998H13.3333C12.597 9.99998 12 10.5969 12 11.3333C12 12.0697 12.597 12.6666 13.3333 12.6666H26.6667C27.403 12.6666 28 12.0697 28 11.3333ZM26.6667 14.6666C27.403 14.6666 28 15.2636 28 16C28 16.7364 27.403 17.3333 26.6667 17.3333H5.33333C4.59695 17.3333 4 16.7364 4 16C4 15.2636 4.59695 14.6666 5.33333 14.6666H26.6667ZM28 20.6666C28 19.9303 27.403 19.3333 26.6667 19.3333H13.3333C12.597 19.3333 12 19.9303 12 20.6666C12 21.403 12.597 22 13.3333 22H26.6667C27.403 22 28 21.403 28 20.6666ZM26.6667 24C27.403 24 28 24.5969 28 25.3333C28 26.0697 27.403 26.6666 26.6667 26.6666H5.33333C4.59695 26.6666 4 26.0697 4 25.3333C4 24.5969 4.59695 24 5.33333 24H26.6667Z" />
</svg>
