<svg width="32" height="32" viewBox="0 0 32 32" fill="currentColor" xmlns="http://www.w3.org/2000/svg">
<path fill-rule="evenodd" clip-rule="evenodd" d="M4 6.66665C4 5.93027 4.59695 5.33331 5.33333 5.33331H26.6667C27.403 5.33331 28 5.93027 28 6.66665C28 7.40303 27.403 7.99998 26.6667 7.99998H5.33333C4.59695 7.99998 4 7.40303 4 6.66665ZM4 11.3333C4 10.5969 4.59695 9.99998 5.33333 9.99998H18.6667C19.403 9.99998 20 10.5969 20 11.3333C20 12.0697 19.403 12.6666 18.6667 12.6666H5.33333C4.59695 12.6666 4 12.0697 4 11.3333ZM5.33333 14.6666C4.59695 14.6666 4 15.2636 4 16C4 16.7364 4.59695 17.3333 5.33333 17.3333H26.6667C27.403 17.3333 28 16.7364 28 16C28 15.2636 27.403 14.6666 26.6667 14.6666H5.33333ZM4 20.6666C4 19.9303 4.59695 19.3333 5.33333 19.3333H18.6667C19.403 19.3333 20 19.9303 20 20.6666C20 21.403 19.403 22 18.6667 22H5.33333C4.59695 22 4 21.403 4 20.6666ZM5.33333 24C4.59695 24 4 24.5969 4 25.3333C4 26.0697 4.59695 26.6666 5.33333 26.6666H26.6667C27.403 26.6666 28 26.0697 28 25.3333C28 24.5969 27.403 24 26.6667 24H5.33333Z" />
</svg>
