<svg xmlns="http://www.w3.org/2000/svg" width="300" height="300" viewBox="0 0 300 300" fill="none">
<g clip-path="url(#clip0_9_517)">
<path d="M247.847 137.386C173.349 82.3434 141.882 82.5153 58.0728 138.024C28.5985 157.546 29.6504 201.548 60.4486 218.906C133.577 260.12 168.59 259.363 243.351 216.633C272.995 199.69 275.307 157.676 247.847 137.386Z" fill="white" stroke="#191B45" stroke-width="12"/>
<path d="M203.606 145.102C219.29 174.292 208.341 210.67 179.151 226.354C149.96 242.038 113.582 231.089 97.8984 201.898C82.2144 172.708 93.1635 136.33 122.354 120.646C151.544 104.962 187.922 115.911 203.606 145.102ZM111.64 194.515C123.247 216.116 150.166 224.218 171.767 212.612C193.368 201.006 201.47 174.086 189.864 152.485C178.258 130.884 151.338 122.782 129.737 134.388C108.137 145.994 100.034 172.914 111.64 194.515Z" fill="#7D7BCF"/>
<circle cx="150.5" cy="173.248" r="45" fill="#F9E8FF"/>
<path d="M170.5 173.248C170.5 184.293 161.546 193.248 150.5 193.248C139.454 193.248 130.5 184.293 130.5 173.248C130.5 162.202 139.454 153.248 150.5 153.248C161.546 153.248 170.5 162.202 170.5 173.248ZM146.631 173.248C146.631 175.384 148.363 177.116 150.5 177.116C152.637 177.116 154.369 175.384 154.369 173.248C154.369 171.111 152.637 169.379 150.5 169.379C148.363 169.379 146.631 171.111 146.631 173.248Z" fill="#0C0A75"/>
<circle cx="150.5" cy="173.248" r="4" fill="white"/>
<rect x="38.5" y="70.229" width="14" height="44" rx="7" transform="rotate(-34.7564 38.5 70.229)" fill="#191B45"/>
<rect x="257.586" y="62.2478" width="14" height="44" rx="7" transform="rotate(34.76 257.586 62.2478)" fill="#191B45"/>
<rect x="143.5" y="30.2478" width="14" height="44" rx="7" fill="#191B45"/>
<path d="M269 177.748C179.5 168.248 131.643 167.341 38 177.748L52.5 141.248L90 115.748L155.5 95.2478L197 108.748L248.5 134.748L269 177.748Z" fill="#191B45"/>
</g>
<defs>
<clipPath id="clip0_9_517">
<rect width="300" height="300" rx="32" fill="white"/>
</clipPath>
</defs>
</svg>